<svg width="30" height="30" viewBox="0 0 30 30" fill="none" xmlns="http://www.w3.org/2000/svg">
<path d="M18.75 21.25H11.25V22.5C11.25 24.5711 12.9289 26.25 15 26.25C17.0711 26.25 18.75 24.5711 18.75 22.5V21.25Z" fill="#C0762B"/>
<path d="M11.25 21.25V20.25C10.6977 20.25 10.25 20.6977 10.25 21.25H11.25ZM18.75 21.25H19.75C19.75 20.6977 19.3023 20.25 18.75 20.25V21.25ZM11.25 22.25H18.75V20.25H11.25V22.25ZM17.75 21.25V22.5H19.75V21.25H17.75ZM12.25 22.5V21.25H10.25V22.5H12.25ZM15 25.25C13.4812 25.25 12.25 24.0188 12.25 22.5H10.25C10.25 25.1234 12.3766 27.25 15 27.25V25.25ZM17.75 22.5C17.75 24.0188 16.5188 25.25 15 25.25V27.25C17.6234 27.25 19.75 25.1234 19.75 22.5H17.75Z" fill="#14181F"/>
<path d="M6.25 21.25H23.75C24.4404 21.25 25 20.6904 25 20V19.2678C25 18.9363 24.8683 18.6183 24.6339 18.3839L23.9953 17.7453C23.8383 17.5882 23.75 17.3752 23.75 17.153V12.5C23.75 7.6675 19.8325 3.74999 15 3.75C10.1675 3.75001 6.25 7.66752 6.25 12.5V17.153C6.25 17.3752 6.16174 17.5883 6.00465 17.7454L5.36612 18.3839C5.1317 18.6183 5 18.9363 5 19.2678V20C5 20.6904 5.55964 21.25 6.25 21.25Z" fill="#C0762B"/>
<path d="M5.36612 18.3839L4.65901 17.6768L4.65901 17.6768L5.36612 18.3839ZM6.00465 17.7454L6.71175 18.4525L6.71175 18.4525L6.00465 17.7454ZM23.9953 17.7453L24.7025 17.0382L24.7025 17.0382L23.9953 17.7453ZM24.6339 18.3839L25.341 17.6768L25.341 17.6768L24.6339 18.3839ZM15 3.75L15 4.75L15 3.75ZM23.75 20.25H6.25V22.25H23.75V20.25ZM6 20V19.2678H4V20H6ZM6.07322 19.091L6.71175 18.4525L5.29754 17.0383L4.65901 17.6768L6.07322 19.091ZM7.25 17.153V12.5H5.25V17.153H7.25ZM22.75 12.5V17.153H24.75V12.5H22.75ZM23.2882 18.4524L23.9268 19.091L25.341 17.6768L24.7025 17.0382L23.2882 18.4524ZM24 19.2678V20H26V19.2678H24ZM23.9268 19.091C23.9737 19.1379 24 19.2015 24 19.2678H26C26 18.671 25.763 18.0988 25.341 17.6768L23.9268 19.091ZM22.75 17.153C22.75 17.6404 22.9436 18.1078 23.2882 18.4524L24.7025 17.0382C24.7329 17.0687 24.75 17.11 24.75 17.153H22.75ZM24.75 12.5C24.75 7.11521 20.3848 2.74999 15 2.75L15 4.75C19.2802 4.74999 22.75 8.21979 22.75 12.5H24.75ZM7.25 12.5C7.25 8.2198 10.7198 4.75001 15 4.75L15 2.75C9.61521 2.75001 5.25 7.11523 5.25 12.5H7.25ZM6.71175 18.4525C7.05639 18.1078 7.25 17.6404 7.25 17.153H5.25C5.25 17.11 5.2671 17.0687 5.29754 17.0383L6.71175 18.4525ZM6 19.2678C6 19.2015 6.02634 19.1379 6.07322 19.091L4.65901 17.6768C4.23705 18.0988 4 18.6711 4 19.2678H6ZM6.25 20.25C6.11193 20.25 6 20.1381 6 20H4C4 21.2427 5.00736 22.25 6.25 22.25V20.25ZM23.75 22.25C24.9926 22.25 26 21.2427 26 20H24C24 20.1381 23.8881 20.25 23.75 20.25V22.25Z" fill="#14181F"/>
<path d="M14 16.25C14 16.8023 14.4477 17.25 15 17.25C15.5523 17.25 16 16.8023 16 16.25H14ZM16 8.75C16 8.19772 15.5523 7.75 15 7.75C14.4477 7.75 14 8.19772 14 8.75H16ZM16 16.25V8.75H14V16.25H16Z" fill="#14181F"/>
<path d="M11.25 11.5C10.6977 11.5 10.25 11.9477 10.25 12.5C10.25 13.0523 10.6977 13.5 11.25 13.5L11.25 11.5ZM18.75 13.5C19.3023 13.5 19.75 13.0523 19.75 12.5C19.75 11.9477 19.3023 11.5 18.75 11.5L18.75 13.5ZM11.25 13.5L18.75 13.5L18.75 11.5L11.25 11.5L11.25 13.5Z" fill="#14181F"/>
</svg>
