<?xml version="1.0" encoding="UTF-8"?>
<svg xmlns="http://www.w3.org/2000/svg" xmlns:xlink="http://www.w3.org/1999/xlink" width="277.5pt" height="30.000001pt" viewBox="0 0 277.5 30.000001" version="1.2">
<defs>
<clipPath id="clip1">
  <path d="M 4.234375 0 L 272.78125 0 L 272.78125 29.03125 L 4.234375 29.03125 Z M 4.234375 0 "/>
</clipPath>
<clipPath id="clip2">
  <path d="M 10.246094 10 L 18 10 L 18 19 L 10.246094 19 Z M 10.246094 10 "/>
</clipPath>
<clipPath id="clip3">
  <path d="M 22.023438 9 L 255.042969 9 L 255.042969 19.585938 L 22.023438 19.585938 Z M 22.023438 9 "/>
</clipPath>
<clipPath id="clip4">
  <path d="M 259.230469 10.769531 L 266.324219 10.769531 L 266.324219 18.628906 L 259.230469 18.628906 Z M 259.230469 10.769531 "/>
</clipPath>
</defs>
<g id="surface1">
<g clip-path="url(#clip1)" clip-rule="nonzero">
<path style=" stroke:none;fill-rule:nonzero;fill:rgb(100%,100%,100%);fill-opacity:1;" d="M 4.234375 0 L 273.265625 0 L 273.265625 36.355469 L 4.234375 36.355469 Z M 4.234375 0 "/>
<path style=" stroke:none;fill-rule:nonzero;fill:rgb(100%,100%,100%);fill-opacity:1;" d="M 4.234375 0 L 273.265625 0 L 273.265625 29.085938 L 4.234375 29.085938 Z M 4.234375 0 "/>
<path style=" stroke:none;fill-rule:nonzero;fill:rgb(100%,100%,100%);fill-opacity:1;" d="M 4.234375 0 L 273.265625 0 L 273.265625 29.085938 L 4.234375 29.085938 Z M 4.234375 0 "/>
</g>
<g clip-path="url(#clip2)" clip-rule="nonzero">
<path style=" stroke:none;fill-rule:nonzero;fill:rgb(75.289917%,46.269226%,16.859436%);fill-opacity:1;" d="M 17.007812 12.261719 C 16.066406 11.132812 14.5 10.390625 13.125 11.160156 C 13.042969 11.207031 12.96875 11.265625 12.886719 11.316406 C 11.964844 11.695312 11.355469 12.523438 11.132812 13.460938 C 10.9375 13.960938 10.835938 14.5 10.867188 15.046875 C 11.042969 18.085938 15.234375 19.914062 17.179688 17.203125 C 17.71875 16.457031 17.890625 15.621094 17.777344 14.855469 C 17.914062 13.953125 17.628906 13.003906 17.007812 12.261719 Z M 14.441406 15.570312 C 14.347656 15.535156 14.261719 15.480469 14.199219 15.378906 C 14.125 15.261719 14.125 15.078125 14.171875 14.902344 C 14.3125 14.6875 14.53125 14.503906 14.71875 14.511719 C 14.929688 14.519531 15.105469 14.660156 15.21875 14.847656 C 15.015625 15.195312 14.726562 15.511719 14.441406 15.570312 "/>
</g>
<g clip-path="url(#clip3)" clip-rule="nonzero">
<path style=" stroke:none;fill-rule:nonzero;fill:rgb(75.289917%,46.269226%,16.859436%);fill-opacity:1;" d="M 248.246094 9.214844 C 246.054688 9.816406 244.859375 11.558594 244.597656 13.453125 L 32.589844 13.453125 C 32.34375 11.558594 31.136719 9.816406 28.945312 9.214844 C 24.203125 7.914062 20.464844 12.785156 23 16.925781 C 23.0625 17.066406 23.128906 17.203125 23.207031 17.335938 C 24.40625 19.371094 27.210938 20.09375 29.355469 19.21875 C 31.148438 18.488281 32.203125 16.964844 32.53125 15.316406 L 244.660156 15.316406 C 245 16.964844 246.054688 18.488281 247.847656 19.21875 C 249.980469 20.09375 252.792969 19.371094 253.988281 17.335938 C 254.070312 17.203125 254.128906 17.066406 254.1875 16.925781 C 256.71875 12.785156 252.992188 7.914062 248.25 9.214844 Z M 24.675781 15.859375 C 24.667969 15.851562 24.664062 15.839844 24.65625 15.828125 C 24.554688 15.425781 24.5625 15.007812 24.679688 14.613281 C 25.195312 15.894531 26.433594 16.976562 27.710938 17.21875 C 26.574219 17.339844 25.363281 16.917969 24.675781 15.859375 Z M 252.53125 15.828125 C 252.53125 15.839844 252.53125 15.851562 252.511719 15.859375 C 251.835938 16.917969 250.617188 17.339844 249.480469 17.21875 C 250.757812 16.976562 251.992188 15.894531 252.511719 14.613281 C 252.632812 15.007812 252.632812 15.425781 252.53125 15.828125 "/>
</g>
<g clip-path="url(#clip4)" clip-rule="nonzero">
<path style=" stroke:none;fill-rule:nonzero;fill:rgb(75.289917%,46.269226%,16.859436%);fill-opacity:1;" d="M 266.066406 13.460938 C 265.828125 12.523438 265.230469 11.695312 264.3125 11.316406 C 264.234375 11.265625 264.152344 11.207031 264.074219 11.160156 C 262.699219 10.390625 261.121094 11.132812 260.1875 12.261719 C 259.566406 13.003906 259.269531 13.953125 259.410156 14.855469 C 259.308594 15.621094 259.46875 16.457031 260.007812 17.203125 C 261.960938 19.914062 266.144531 18.085938 266.324219 15.046875 C 266.367188 14.5 266.246094 13.960938 266.066406 13.460938 Z M 262.996094 15.378906 C 262.9375 15.480469 262.835938 15.535156 262.757812 15.570312 C 262.457031 15.511719 262.179688 15.195312 261.980469 14.847656 C 262.078125 14.660156 262.257812 14.519531 262.476562 14.511719 C 262.65625 14.503906 262.878906 14.6875 263.015625 14.902344 C 263.078125 15.078125 263.078125 15.261719 262.996094 15.378906 "/>
</g>
</g>
</svg>
