<svg width="33" height="33" viewBox="0 0 33 33" fill="none" xmlns="http://www.w3.org/2000/svg">
<path d="M26.125 16.5H17.875C17.1156 16.5 16.5 17.1156 16.5 17.875V27.5H26.125C26.8844 27.5 27.5 26.8844 27.5 26.125V17.875C27.5 17.1156 26.8844 16.5 26.125 16.5Z" stroke="#B7291D" stroke-width="2" stroke-linecap="round" stroke-linejoin="round"/>
<path d="M15.125 16.5H6.875C6.11561 16.5 5.5 17.1156 5.5 17.875V26.125C5.5 26.8844 6.11561 27.5 6.875 27.5H16.5V17.875C16.5 17.1156 15.8844 16.5 15.125 16.5Z" stroke="#B7291D" stroke-width="2" stroke-linecap="round" stroke-linejoin="round"/>
<path d="M27.5 11H17.875C17.1156 11 16.5 11.6156 16.5 12.375V15.125C16.5 15.8844 17.1156 16.5 17.875 16.5H27.5C28.2594 16.5 28.875 15.8844 28.875 15.125V12.375C28.875 11.6156 28.2594 11 27.5 11Z" stroke="#B7291D" stroke-width="2" stroke-linecap="round" stroke-linejoin="round"/>
<path d="M15.125 11H5.5C4.74061 11 4.125 11.6156 4.125 12.375V15.125C4.125 15.8844 4.74061 16.5 5.5 16.5H15.125C15.8844 16.5 16.5 15.8844 16.5 15.125V12.375C16.5 11.6156 15.8844 11 15.125 11Z" stroke="#B7291D" stroke-width="2" stroke-linecap="round" stroke-linejoin="round"/>
<path d="M16.5 11V7.5625C16.5 5.66402 18.039 4.125 19.9375 4.125C21.836 4.125 23.375 5.66402 23.375 7.5625C23.375 9.46098 21.836 11 19.9375 11H16.5Z" stroke="#B7291D" stroke-width="2" stroke-linecap="round" stroke-linejoin="round"/>
<path d="M16.5 11V7.5625C16.5 5.66402 14.961 4.125 13.0625 4.125C11.164 4.125 9.625 5.66402 9.625 7.5625C9.625 9.46098 11.164 11 13.0625 11H16.5Z" stroke="#B7291D" stroke-width="2" stroke-linecap="round" stroke-linejoin="round"/>
</svg>
