<svg width="38" height="38" viewBox="0 0 38 38" fill="none" xmlns="http://www.w3.org/2000/svg">
<path d="M27.3759 6.55507L27.265 12.5559C27.2492 13.3792 27.7718 14.4717 28.4368 14.9626L32.3634 17.9392C34.8809 19.8392 34.4693 22.1667 31.4609 23.1167L26.3468 24.7159C25.4918 24.985 24.5893 25.9192 24.3676 26.7901L23.1484 31.445C22.1826 35.1184 19.7759 35.4825 17.7809 32.2525L14.9942 27.74C14.4875 26.9167 13.2842 26.2992 12.3342 26.3467L7.04595 26.6159C3.26178 26.8059 2.1851 24.6209 4.6551 21.7392L7.79007 18.0975C8.3759 17.4167 8.64506 16.1501 8.37589 15.2951L6.77681 10.1809C5.84264 7.17254 7.52095 5.51006 10.5135 6.49172L15.1843 8.02756C15.976 8.28089 17.1634 8.10671 17.8284 7.61588L22.7051 4.10088C25.3335 2.20088 27.4392 3.30924 27.3759 6.55507Z" stroke="#C0762B" stroke-width="1.5" stroke-linecap="round" stroke-linejoin="round"/>
<path d="M34.6909 34.8334L29.8934 30.0359" stroke="#C0762B" stroke-width="1.5" stroke-linecap="round" stroke-linejoin="round"/>
</svg>
