<svg width="40" height="40" viewBox="0 0 40 40" fill="none" xmlns="http://www.w3.org/2000/svg">
<path d="M31.6667 15C31.6667 17.4166 30.95 19.6333 29.7167 21.4833C27.9167 24.15 25.0667 26.0333 21.75 26.5167C21.1834 26.6167 20.6 26.6666 20 26.6666C19.4 26.6666 18.8167 26.6167 18.25 26.5167C14.9334 26.0333 12.0834 24.15 10.2834 21.4833C9.05004 19.6333 8.33337 17.4166 8.33337 15C8.33337 8.54998 13.55 3.33331 20 3.33331C26.45 3.33331 31.6667 8.54998 31.6667 15Z" stroke="#C0762B" stroke-width="1.5" stroke-linecap="round" stroke-linejoin="round"/>
<path d="M35.4167 30.7833L32.6667 31.4333C32.0501 31.5833 31.5667 32.05 31.4334 32.6667L30.8501 35.1167C30.5334 36.45 28.8334 36.85 27.9501 35.8L20.0001 26.6667L12.0501 35.8167C11.1667 36.8667 9.46672 36.4667 9.15005 35.1333L8.56672 32.6833C8.41672 32.0667 7.93338 31.5833 7.33338 31.45L4.58338 30.8C3.31672 30.5 2.86672 28.9167 3.78338 28L10.2834 21.5C12.0834 24.1667 14.9334 26.05 18.2501 26.5334C18.8167 26.6334 19.4001 26.6834 20.0001 26.6834C20.6001 26.6834 21.1834 26.6334 21.7501 26.5334C25.0667 26.05 27.9167 24.1667 29.7167 21.5L36.2167 28C37.1334 28.9 36.6834 30.4833 35.4167 30.7833Z" stroke="#C0762B" stroke-width="1.5" stroke-linecap="round" stroke-linejoin="round"/>
<path d="M20.9667 9.96669L21.95 11.9333C22.0833 12.2 22.4333 12.4667 22.75 12.5167L24.5333 12.8167C25.6667 13 25.9333 13.8333 25.1167 14.65L23.7333 16.0333C23.5 16.2667 23.3667 16.7167 23.45 17.05L23.85 18.7667C24.1667 20.1167 23.45 20.65 22.25 19.9333L20.5833 18.95C20.2833 18.7667 19.7833 18.7667 19.4833 18.95L17.8167 19.9333C16.6167 20.6333 15.9 20.1167 16.2167 18.7667L16.6167 17.05C16.6833 16.7334 16.5667 16.2667 16.3333 16.0333L14.95 14.65C14.1333 13.8333 14.4 13.0167 15.5333 12.8167L17.3167 12.5167C17.6167 12.4667 17.9667 12.2 18.1 11.9333L19.0833 9.96669C19.5667 8.90002 20.4333 8.90002 20.9667 9.96669Z" stroke="#C0762B" stroke-width="1.5" stroke-linecap="round" stroke-linejoin="round"/>
</svg>
