<svg width="40" height="40" viewBox="0 0 40 40" fill="none" xmlns="http://www.w3.org/2000/svg">
<path d="M29.9999 11.9334C29.8999 11.9167 29.7833 11.9167 29.6833 11.9334C27.3833 11.85 25.5499 9.96671 25.5499 7.63338C25.5499 5.25004 27.4666 3.33337 29.8499 3.33337C32.2333 3.33337 34.1499 5.26671 34.1499 7.63338C34.1333 9.96671 32.2999 11.85 29.9999 11.9334Z" stroke="#C0762B" stroke-width="1.5" stroke-linecap="round" stroke-linejoin="round"/>
<path d="M28.2833 24.0667C30.5666 24.4501 33.0833 24.0501 34.85 22.8667C37.2 21.3001 37.2 18.7334 34.85 17.1667C33.0666 15.9834 30.5166 15.5834 28.2333 15.9834" stroke="#C0762B" stroke-width="1.5" stroke-linecap="round" stroke-linejoin="round"/>
<path d="M9.94993 11.9334C10.0499 11.9167 10.1666 11.9167 10.2666 11.9334C12.5666 11.85 14.3999 9.96671 14.3999 7.63338C14.3999 5.25004 12.4833 3.33337 10.0999 3.33337C7.7166 3.33337 5.79993 5.26671 5.79993 7.63338C5.81659 9.96671 7.64993 11.85 9.94993 11.9334Z" stroke="#C0762B" stroke-width="1.5" stroke-linecap="round" stroke-linejoin="round"/>
<path d="M11.6666 24.0667C9.38323 24.4501 6.86657 24.0501 5.0999 22.8667C2.7499 21.3001 2.7499 18.7334 5.0999 17.1667C6.88324 15.9834 9.43323 15.5834 11.7166 15.9834" stroke="#C0762B" stroke-width="1.5" stroke-linecap="round" stroke-linejoin="round"/>
<path d="M19.9999 24.3833C19.8999 24.3667 19.7833 24.3667 19.6833 24.3833C17.3833 24.3 15.5499 22.4167 15.5499 20.0833C15.5499 17.7 17.4666 15.7833 19.8499 15.7833C22.2333 15.7833 24.1499 17.7167 24.1499 20.0833C24.1333 22.4167 22.2999 24.3167 19.9999 24.3833Z" stroke="#C0762B" stroke-width="1.5" stroke-linecap="round" stroke-linejoin="round"/>
<path d="M15.15 29.6333C12.8 31.2 12.8 33.7667 15.15 35.3333C17.8166 37.1167 22.1833 37.1167 24.85 35.3333C27.2 33.7667 27.2 31.2 24.85 29.6333C22.2 27.8667 17.8166 27.8667 15.15 29.6333Z" stroke="#C0762B" stroke-width="1.5" stroke-linecap="round" stroke-linejoin="round"/>
</svg>
