<svg width="40" height="40" viewBox="0 0 40 40" fill="none" xmlns="http://www.w3.org/2000/svg">
<path d="M20 35C28.2843 35 35 28.2843 35 20C35 11.7157 28.2843 5 20 5C11.7157 5 5 11.7157 5 20C5 28.2843 11.7157 35 20 35Z" stroke="#C0762B" stroke-width="2" stroke-linecap="round" stroke-linejoin="round"/>
<path d="M28.6942 32.2204C26.558 29.8347 23.4542 28.3333 19.9998 28.3333C16.5454 28.3333 13.4416 29.8347 11.3054 32.2204" stroke="#C0762B" stroke-width="2" stroke-linecap="round" stroke-linejoin="round"/>
<g filter="url(#filter0_d_17102_17335)">
<path d="M20 23.3333C22.7614 23.3333 25 21.0947 25 18.3333C25 15.5719 22.7614 13.3333 20 13.3333C17.2386 13.3333 15 15.5719 15 18.3333C15 21.0947 17.2386 23.3333 20 23.3333Z" stroke="#C0762B" stroke-width="2" stroke-linecap="round" stroke-linejoin="round" shape-rendering="crispEdges"/>
</g>
<defs>
<filter id="filter0_d_17102_17335" x="10" y="12.3333" width="20" height="20" filterUnits="userSpaceOnUse" color-interpolation-filters="sRGB">
<feFlood flood-opacity="0" result="BackgroundImageFix"/>
<feColorMatrix in="SourceAlpha" type="matrix" values="0 0 0 0 0 0 0 0 0 0 0 0 0 0 0 0 0 0 127 0" result="hardAlpha"/>
<feOffset dy="4"/>
<feGaussianBlur stdDeviation="2"/>
<feComposite in2="hardAlpha" operator="out"/>
<feColorMatrix type="matrix" values="0 0 0 0 0 0 0 0 0 0 0 0 0 0 0 0 0 0 0.25 0"/>
<feBlend mode="normal" in2="BackgroundImageFix" result="effect1_dropShadow_17102_17335"/>
<feBlend mode="normal" in="SourceGraphic" in2="effect1_dropShadow_17102_17335" result="shape"/>
</filter>
</defs>
</svg>
