<?xml version="1.0"?>
<svg xmlns="http://www.w3.org/2000/svg" xmlns:xlink="http://www.w3.org/1999/xlink" xmlns:svgjs="http://svgjs.com/svgjs" version="1.1" width="512" height="512" x="0" y="0" viewBox="0 0 512 512" style="enable-background:new 0 0 512 512" xml:space="preserve" class=""><g><g xmlns="http://www.w3.org/2000/svg"><g><g fill="#5a5a5a"><path d="m243.417 422.896c-.119-.008-.238-.02-.357-.028-.02.001-.041.003-.061.005.14.009.28.013.418.023z" fill="#c0762b" data-original="#5a5a5a" style="" class=""/><path d="m243.417 422.896c1.586.108 3.178.198 4.775.266-1.596-.07-3.188-.159-4.775-.266z" fill="#c0762b" data-original="#5a5a5a" style="" class=""/><path d="m243 7.966c.109.008.308-.016.433-.024-.144.01-.289.014-.433.024z" fill="#c0762b" data-original="#5a5a5a" style="" class=""/><path d="m409.436 141.263c-5.503-78.918-87.198-126.467-156.203-132.285l-.001.009c-3.363-.427-6.751-.773-10.169-1.015-94.752 6.637-169.563 85.587-169.563 182.028v50.839c0 96.439 74.809 175.389 169.561 182.028 94.695-6.698 169.439-85.629 169.439-182.028 0-71.554.699-45.613-3.064-99.576z" fill="#c0762b" data-original="#5a5a5a" style="" class=""/><path d="m243.433 7.942c1.587-.107 3.18-.197 4.777-.266-1.598.068-3.19.158-4.777.266z" fill="#c0762b" data-original="#5a5a5a" style="" class=""/></g><path d="m256 7.5c-4.372 0-8.705.164-13 .466 94.724 6.668 169.5 85.614 169.5 182.034v50.839c0 96.42-74.776 175.365-169.5 182.033 4.295.303 8.628.466 13 .466 100.792 0 182.5-81.708 182.5-182.5v-50.838c0-100.792-81.708-182.5-182.5-182.5z" fill="#444444" data-original="#444444" style=""/><path d="m407.047 83.728-.001.004c-2.106-1.501-4.679-2.39-7.465-2.39-9.416 0-298.701 0-313.164 0-7.135 0-12.918 5.784-12.918 12.918v290.74c0 65.998 53.502 119.5 119.5 119.5h80 20 6c65.998 0 119.5-53.502 119.5-119.5 0-1.184 0-288.805 0-292.063-.002-.002-11.451-9.209-11.452-9.209z" fill="#c0762b" data-original="#acacac" style="" class=""/><path d="m425.582 81.342h-26c7.135 0 12.918 5.784 12.918 12.918v290.74c0 65.998-53.502 119.5-119.5 119.5h26c65.998 0 119.5-53.502 119.5-119.5v-290.74c0-7.135-5.784-12.918-12.918-12.918z" fill="#9c9c9c" data-original="#9c9c9c" style="" class=""/><path d="m381.475 274.391h-250.95c-10.438 0-18.9-8.462-18.9-18.9v-98.7c0-10.438 8.462-18.9 18.9-18.9h250.95c10.438 0 18.9 8.462 18.9 18.9v98.7c0 10.438-8.462 18.9-18.9 18.9z" fill="#bfbfbf" data-original="#bfbfbf" style="" class=""/><path d="m73.5 251.313h-18.5c-4.971 0-9-4.029-9-9v-55.826c0-4.971 4.029-9 9-9h18.5z" fill="#c0762b" data-original="#5a5a5a" style="" class=""/><path d="m438.5 177.487h18.5c4.971 0 9 4.029 9 9v55.826c0 4.971-4.029 9-9 9h-18.5z" fill="#c0762b" data-original="#5a5a5a" style="" class=""/><path d="m367.075 165.19h-26c3.314 0 6 2.687 6 6v69.9c0 3.313-2.686 6-6 6h26c3.314 0 6-2.687 6-6v-69.9c0-3.313-2.686-6-6-6z" fill="#d5e3f4" data-original="#d5e3f4" style=""/><g><path d="m347.075 241.091v-69.9c0-3.313-2.684-5.998-5.996-6h-196.154c-3.314 0-6 2.687-6 6v69.9c0 3.313 2.686 6 6 6h196.154c3.312-.002 5.996-2.688 5.996-6z" fill="#e5eef9" data-original="#e5eef9" style="" class=""/></g></g><g><path d="m407.875 255.491v-98.7c0-14.557-11.843-26.4-26.4-26.4h-250.95c-14.558 0-26.4 11.843-26.4 26.4v98.7c0 14.557 11.843 26.4 26.4 26.4h250.949c14.558 0 26.401-11.843 26.401-26.4zm-288.75 0v-98.7c0-6.286 5.114-11.4 11.4-11.4h250.949c6.286 0 11.4 5.114 11.4 11.4v98.7c0 6.286-5.114 11.4-11.4 11.4h-250.949c-6.286 0-11.4-5.114-11.4-11.4z" fill="#000000" data-original="#000000" style="" class=""/><path d="m367.075 157.69h-222.15c-7.444 0-13.5 6.056-13.5 13.5v69.9c0 7.444 6.056 13.5 13.5 13.5h222.15c7.444 0 13.5-6.056 13.5-13.5v-69.9c0-7.443-6.055-13.5-13.5-13.5zm-1.5 81.901h-219.15v-66.9h219.15z" fill="#000000" data-original="#000000" style="" class=""/><path d="m248.5 405v60c0 4.142 3.357 7.5 7.5 7.5s7.5-3.358 7.5-7.5v-60c0-4.142-3.357-7.5-7.5-7.5s-7.5 3.358-7.5 7.5z" fill="#000000" data-original="#000000" style="" class=""/><path d="m218.5 409v52c0 4.142 3.357 7.5 7.5 7.5s7.5-3.358 7.5-7.5v-52c0-4.142-3.357-7.5-7.5-7.5s-7.5 3.358-7.5 7.5z" fill="#000000" data-original="#000000" style="" class=""/><path d="m188.5 413v44c0 4.142 3.357 7.5 7.5 7.5s7.5-3.358 7.5-7.5v-44c0-4.142-3.357-7.5-7.5-7.5s-7.5 3.358-7.5 7.5z" fill="#000000" data-original="#000000" style="" class=""/><path d="m278.5 409v52c0 4.142 3.357 7.5 7.5 7.5s7.5-3.358 7.5-7.5v-52c0-4.142-3.357-7.5-7.5-7.5s-7.5 3.358-7.5 7.5z" fill="#000000" data-original="#000000" style="" class=""/><path d="m308.5 413v44c0 4.142 3.357 7.5 7.5 7.5s7.5-3.358 7.5-7.5v-44c0-4.142-3.357-7.5-7.5-7.5s-7.5 3.358-7.5 7.5z" fill="#000000" data-original="#000000" style="" class=""/><path d="m457 169.986h-11v-75.726c0-11.258-9.159-20.418-20.418-20.418h-19.223c-11.999-15.515-26.243-29.026-42.387-40.196-3.408-2.357-8.079-1.506-10.436 1.9s-1.506 8.078 1.9 10.435c11.599 8.024 22.134 17.361 31.453 27.861-5.714 0-247.88 0-261.761 0 33.031-37.092 80.895-58.842 130.872-58.842 24.41 0 48.026 4.927 70.19 14.645 3.795 1.664 8.218-.063 9.881-3.857 1.663-3.793-.064-8.217-3.857-9.88-24.075-10.556-49.717-15.908-76.214-15.908-30.586 0-59.793 7.049-86.81 20.951-24.636 12.677-46.521 30.924-63.529 52.891h-19.243c-11.259 0-20.418 9.159-20.418 20.418v75.727h-11c-9.098 0-16.5 7.402-16.5 16.5v55.827c0 9.098 7.402 16.5 16.5 16.5h11v126.186c-.001 19.356 4.243 37.943 12.614 55.245 1.804 3.729 6.288 5.287 10.018 3.485 3.729-1.804 5.289-6.29 3.484-10.018-7.377-15.248-11.117-31.637-11.116-48.712 0-22.685 0-275.385 0-290.74 0-2.987 2.431-5.418 5.418-5.418h339.164c2.987 0 5.418 2.431 5.418 5.418v290.74c0 61.757-50.243 112-112 112h-126c-31.27 0-61.343-13.216-82.508-36.26-2.801-3.051-7.546-3.252-10.597-.45s-3.252 7.546-.45 10.597c23.998 26.128 58.098 41.113 93.555 41.113h126c70.028 0 127-56.972 127-127v-126.187h11c9.098 0 16.5-7.402 16.5-16.5v-55.827c0-9.098-7.402-16.5-16.5-16.5zm-391 73.827h-11c-.827 0-1.5-.673-1.5-1.5v-55.827c0-.827.673-1.5 1.5-1.5h11zm392.5-1.5c0 .827-.673 1.5-1.5 1.5h-11c0-6.271 0-51.729 0-58.827h11c.827 0 1.5.673 1.5 1.5z" fill="#000000" data-original="#000000" style="" class=""/></g></g></g></svg>
