<svg width="39" height="39" viewBox="0 0 39 39" fill="none" xmlns="http://www.w3.org/2000/svg">
<rect width="39" height="39" fill="white"/>
<path d="M37.375 29.1037C37.4075 30.3224 37.0825 31.4762 36.4975 32.4675C36.1725 33.0525 35.7337 33.5887 35.2462 34.0275C34.125 35.0675 32.6462 35.7012 31.005 35.75C28.6325 35.7987 26.5362 34.58 25.3825 32.7112C24.765 31.7525 24.3912 30.5988 24.375 29.38C24.3262 27.3325 25.2362 25.48 26.6987 24.2612C27.8037 23.3512 29.2012 22.7825 30.7287 22.75C34.32 22.6687 37.2937 25.5124 37.375 29.1037Z" stroke="#C0762B" stroke-width="1.5" stroke-miterlimit="10" stroke-linecap="round" stroke-linejoin="round"/>
<path d="M28.34 29.2988L29.9812 30.8587L33.3775 27.5762" stroke="#C0762B" stroke-width="1.5" stroke-linecap="round" stroke-linejoin="round"/>
<path d="M5.15131 12.09L19.5 20.3937L33.7513 12.1387" stroke="#C0762B" stroke-width="1.5" stroke-linecap="round" stroke-linejoin="round"/>
<path d="M19.5001 35.1162V20.3774" stroke="#C0762B" stroke-width="1.5" stroke-linecap="round" stroke-linejoin="round"/>
<path d="M35.1162 14.9013V24.0988C35.1162 24.1801 35.1163 24.245 35.1 24.3262C33.9625 23.335 32.5 22.75 30.875 22.75C29.3475 22.75 27.9338 23.2863 26.8125 24.18C25.3175 25.3663 24.375 27.2025 24.375 29.25C24.375 30.4688 24.7162 31.6225 25.3175 32.5975C25.4637 32.8575 25.6425 33.1013 25.8375 33.3288L22.8638 34.9701C21.0113 36.0101 17.9888 36.0101 16.1363 34.9701L7.45876 30.16C5.49251 29.0713 3.88379 26.3413 3.88379 24.0988V14.9013C3.88379 12.6588 5.49251 9.92879 7.45876 8.84004L16.1363 4.03C17.9888 2.99 21.0113 2.99 22.8638 4.03L31.5413 8.84004C33.5075 9.92879 35.1162 12.6588 35.1162 14.9013Z" stroke="#C0762B" stroke-width="1.5" stroke-linecap="round" stroke-linejoin="round"/>
</svg>
