<?xml version="1.0"?>
<svg xmlns="http://www.w3.org/2000/svg" xmlns:xlink="http://www.w3.org/1999/xlink" xmlns:svgjs="http://svgjs.com/svgjs" version="1.1" width="512" height="512" x="0" y="0" viewBox="0 0 512 512" style="enable-background:new 0 0 512 512" xml:space="preserve" class=""><g><g xmlns="http://www.w3.org/2000/svg" id="filled_outline" data-name="filled outline"><path d="m176 352h296v48h-296z" fill="#58595b" data-original="#c7830b" style="" class=""/><path d="m472 384h-56v32h56a16 16 0 0 0 16-16 16 16 0 0 0 -16-16z" fill="#dcdbd6" data-original="#dcdbd6" style=""/><path d="m176 296a16 16 0 0 0 -16-16h-68.912a16 16 0 0 0 -14.981 10.382l-20.107 53.618h120z" fill="#66b4cb" data-original="#eae9e4" style="" class=""/><path d="m56 344v48l24 24h96v-72z" fill="#c0762b" data-original="#f7a014" style="" class=""/><circle cx="328" cy="416" fill="#2b3f57" r="32" data-original="#aeadaa" style="" class=""/><circle cx="416" cy="416" fill="#2b3f57" r="32" data-original="#aeadaa" style="" class=""/><path d="m112 384-24 32h-24a16 16 0 0 1 -16-16 16 16 0 0 1 16-16z" fill="#dcdbd6" data-original="#dcdbd6" style=""/><circle cx="112" cy="416" fill="#2b3f57" r="32" data-original="#aeadaa" style="" class=""/><path d="m280 224h-30.111a16 16 0 0 0 -14.311 8.845l-19.578 39.155v16h64z" fill="#66b4cb" data-original="#eae9e4" style="" class=""/><path d="m280 224v64h-64v22a10 10 0 0 0 10 10h86v-96z" fill="#c0762b" data-original="#f7a014" style="" class=""/><path d="m384 352h-128l8-32h112z" fill="#936108" data-original="#936108" style="" class=""/><g fill="#f7a014"><path d="m216 72-184 32-8 32 192-32 192 176 32-48z" fill="#c0762b" data-original="#f7a014" style="" class=""/><path d="m440 232-32 48-28.6-26.21 12.6-37.79h25.6z" fill="#c0762b" data-original="#f7a014" style="" class=""/><path d="m312 272h72l16-48h48v80a16 16 0 0 1 -16 16h-120z" fill="#c0762b" data-original="#f7a014" style="" class=""/><path d="m216 376h32v48h-32z" fill="#c0762b" data-original="#f7a014" style="" class=""/></g><circle cx="328" cy="416" r="8" fill="#000000" data-original="#000000" style="" class=""/><path d="m416 456a40.068 40.068 0 0 0 39.2-32h16.8a24 24 0 0 0 8-46.624v-25.376a8 8 0 0 0 -8-8h-81.754l-4-16h45.754a24.027 24.027 0 0 0 24-24v-80a8 8 0 0 0 -8-8h-16.653c-.051-.038-.1-.081-.149-.118 0 0-214.172-151.807-214.4-151.831-.1-.01-186.164 32.067-186.164 32.067a8 8 0 0 0 -6.39 5.942l-8 32a8 8 0 0 0 1.883 7.367c1.527 1.654 13.878 1.35 13.878 1.35v41.223a8 8 0 0 0 8 8 8 8 0 1 1 -6.935 11.994 8 8 0 1 0 -13.849 8.012 24 24 0 1 0 28.779-34.635v-37.261l165.468-27.578 164.877 151.137-.111.331h-58.234v-40a8 8 0 0 0 -8-8h-62.111a23.868 23.868 0 0 0 -21.466 13.267l-19.578 39.155a7.994 7.994 0 0 0 -.845 3.578v38a18.021 18.021 0 0 0 18 18h27.754l-4 16h-65.754v-48a24.027 24.027 0 0 0 -24-24h-68.912a24.111 24.111 0 0 0 -22.472 15.573s-20.567 55.554-20.577 55.663c-.025.254-.039 38.895-.039 38.895a23.986 23.986 0 0 0 16 41.869h8.805a40 40 0 0 0 78.39 0h24.805a8 8 0 0 0 8-8v-8h24v16a8 8 0 0 0 8 8h8v8h-8a8 8 0 0 0 0 16h32a8 8 0 0 0 0-16h-8v-8h8a8 8 0 0 0 8-8v-16h32.805a40 40 0 1 0 78.39 0h9.61a40.014 40.014 0 0 0 39.195 48zm0-16a24 24 0 1 1 24-24 24.028 24.028 0 0 1 -24 24zm56-32h-16.8a39.841 39.841 0 0 0 -7.217-16h24.017a8 8 0 0 1 0 16zm-433.5-297.01 169.5-29.479v15.712l-173.279 28.877zm185.5-10.509v-12.936l179.835 128.455h-3.835a8 8 0 0 0 -7.59 5.47l-8.523 25.573zm160 179.519a8 8 0 0 0 7.59-5.47l14.176-42.53h34.234v72a8.009 8.009 0 0 1 -8 8h-112v-32zm-141.267-43.578a7.958 7.958 0 0 1 7.156-4.422h22.111v48h-48v-6.111zm-18.733 73.578v-14h56a8 8 0 0 0 8-8v-56h16v80h-78a2 2 0 0 1 -2-2zm46.246 18h99.508l4 16h-107.508zm-102.246-32v40h-40v-48h32a8.009 8.009 0 0 1 8 8zm-84.4-2.809a8.037 8.037 0 0 1 7.488-5.191h20.912v48h-44.456zm-27.6 106.809a8.009 8.009 0 0 1 8-8h16.022a39.841 39.841 0 0 0 -7.217 16h-8.805a8.009 8.009 0 0 1 -8-8zm56 40a24 24 0 1 1 24-24 24.028 24.028 0 0 1 -24 24zm56-32h-16.8a40.067 40.067 0 0 0 -39.2-32h-48v-24h104zm72 8h-16v-32h16zm88 24a24 24 0 1 1 24-24 24.028 24.028 0 0 1 -24 24zm31.978-48a39.956 39.956 0 0 0 -63.956 0h-40.022v-16a8 8 0 0 0 -8-8h-32a8 8 0 0 0 -8 8v16h-24v-32h280v16h-48a39.962 39.962 0 0 0 -31.978 16z" fill="#000000" data-original="#000000" style="" class=""/><circle cx="416" cy="416" r="8" fill="#000000" data-original="#000000" style="" class=""/><circle cx="112" cy="416" r="8" fill="#000000" data-original="#000000" style="" class=""/></g></g></svg>
