<svg width="40" height="40" viewBox="0 0 40 40" fill="none" xmlns="http://www.w3.org/2000/svg">
<path d="M28.2667 10.2833C31.6 12.6 33.9 16.2833 34.3667 20.5333" stroke="#C0762B" stroke-width="1.5" stroke-linecap="round" stroke-linejoin="round"/>
<path d="M5.81665 20.6167C6.24998 16.3834 8.51665 12.7 11.8167 10.3667" stroke="#C0762B" stroke-width="1.5" stroke-linecap="round" stroke-linejoin="round"/>
<path d="M13.65 34.9C15.5834 35.8834 17.7834 36.4334 20.1 36.4334C22.3334 36.4334 24.4334 35.9334 26.3167 35.0167" stroke="#C0762B" stroke-width="1.5" stroke-linecap="round" stroke-linejoin="round"/>
<path d="M20.1 12.8333C22.6589 12.8333 24.7333 10.7589 24.7333 8.19998C24.7333 5.64106 22.6589 3.56665 20.1 3.56665C17.5411 3.56665 15.4667 5.64106 15.4667 8.19998C15.4667 10.7589 17.5411 12.8333 20.1 12.8333Z" stroke="#C0762B" stroke-width="1.5" stroke-linecap="round" stroke-linejoin="round"/>
<path d="M8.05002 33.2C10.6089 33.2 12.6834 31.1256 12.6834 28.5667C12.6834 26.0078 10.6089 23.9333 8.05002 23.9333C5.4911 23.9333 3.41669 26.0078 3.41669 28.5667C3.41669 31.1256 5.4911 33.2 8.05002 33.2Z" stroke="#C0762B" stroke-width="1.5" stroke-linecap="round" stroke-linejoin="round"/>
<path d="M31.95 33.2C34.5089 33.2 36.5833 31.1256 36.5833 28.5667C36.5833 26.0078 34.5089 23.9333 31.95 23.9333C29.3911 23.9333 27.3167 26.0078 27.3167 28.5667C27.3167 31.1256 29.3911 33.2 31.95 33.2Z" stroke="#C0762B" stroke-width="1.5" stroke-linecap="round" stroke-linejoin="round"/>
</svg>
