<?xml version="1.0" encoding="UTF-8"?>
<svg xmlns="http://www.w3.org/2000/svg" xmlns:xlink="http://www.w3.org/1999/xlink" xmlns:svgjs="http://svgjs.com/svgjs" version="1.1" width="512" height="512" x="0" y="0" viewBox="0 0 60 49" style="enable-background:new 0 0 512 512" xml:space="preserve" class="">
  <g>
    <g xmlns="http://www.w3.org/2000/svg" id="Page-1" fill="none" fill-rule="evenodd">
      <g id="037---Concrete-Truck">
        <g id="Icons" transform="translate(1 1)">
          <path id="Path" d="m17 41c.0007205.3353876-.0294064.6701307-.09 1-.4853307 2.8857455-2.9837271 4.9990438-5.91 4.9990438-2.92627287 0-5.42466925-2.1132983-5.91-4.9990438-.06059363-.3298693-.09072051-.6646124-.09-1-.00503816-1.0546903.2748116-2.0911709.81-3 1.06894561-1.8562997 3.04792312-3.0003513 5.19-3.0003513 2.1420769 0 4.1210544 1.1440516 5.19 3.0003513.5351884.9088291.8150382 1.9453097.81 3z" fill="#607d8b" data-original="#607d8b" style="" class=""/>
          <path id="Path" d="m16.19 38c-1.3404541-2.3385485-4.0834243-3.4865779-6.69-2.8 1.5557587.400645 2.8853269 1.4095314 3.69 2.8.5351884.9088291.8150382 1.9453097.81 3 .0007205.3353876-.0294064.6701307-.09 1-.3958796 2.3264397-2.1237665 4.2020394-4.41 4.787 1.6242997.4490784 3.363079.182877 4.778624-.7315919 1.4155451-.9144689 2.3730136-2.3900943 2.631376-4.0554081.0605936-.3298693.0907205-.6646124.09-1 .0050382-1.0546903-.2748116-2.0911709-.81-3z" fill="#37474f" data-original="#37474f" style=""/>
          <path id="Path" d="m33 41c.0007205.3353876-.0294064.6701307-.09 1-.4853307 2.8857455-2.9837271 4.9990438-5.91 4.9990438s-5.4246693-2.1132983-5.91-4.9990438c-.0605936-.3298693-.0907205-.6646124-.09-1-.0050382-1.0546903.2748116-2.0911709.81-3 1.0689456-1.8562997 3.0479231-3.0003513 5.19-3.0003513s4.1210544 1.1440516 5.19 3.0003513c.5351884.9088291.8150382 1.9453097.81 3z" fill="#607d8b" data-original="#607d8b" style="" class=""/>
          <path id="Path" d="m32.19 38c-1.3404541-2.3385485-4.0834243-3.4865779-6.69-2.8 1.5557587.400645 2.8853269 1.4095314 3.69 2.8.5351884.9088291.8150382 1.9453097.81 3 .0007205.3353876-.0294064.6701307-.09 1-.3958796 2.3264397-2.1237665 4.2020394-4.41 4.787 1.6242997.4490784 3.363079.182877 4.778624-.7315919 1.4155451-.9144689 2.3730136-2.3900943 2.631376-4.0554081.0605936-.3298693.0907205-.6646124.09-1 .0050382-1.0546903-.2748116-2.0911709-.81-3z" fill="#37474f" data-original="#37474f" style=""/>
          <path id="Path" d="m54 41c.0007205.3353876-.0294064.6701307-.09 1-.4853307 2.8857455-2.9837271 4.9990438-5.91 4.9990438s-5.4246693-2.1132983-5.91-4.9990438c-.0605936-.3298693-.0907205-.6646124-.09-1-.0050382-1.0546903.2748116-2.0911709.81-3 1.0689456-1.8562997 3.0479231-3.0003513 5.19-3.0003513s4.1210544 1.1440516 5.19 3.0003513c.53395.9093493.8137062 1.9454836.81 3z" fill="#607d8b" data-original="#607d8b" style="" class=""/>
          <path id="Path" d="m53.19 38c-1.3404541-2.3385485-4.0834243-3.4865779-6.69-2.8 1.5557587.400645 2.8853269 1.4095314 3.69 2.8.53395.9093493.8137062 1.9454836.81 3 .0007205.3353876-.0294064.6701307-.09 1-.3958796 2.3264397-2.1237665 4.2020394-4.41 4.787 1.6242997.4490784 3.363079.182877 4.778624-.7315919 1.4155451-.9144689 2.3730136-2.3900943 2.631376-4.0554081.0605936-.3298693.0907205-.6646124.09-1 .0037062-1.0545164-.27605-2.0906507-.81-3z" fill="#37474f" data-original="#37474f" style=""/>
          <g fill="#7f8e94">
            <path id="Path" d="m5 41c-.00072051.3353876.02940637.6701307.09 1h-4.09c-.55228475 0-1-.4477153-1-1v-2c0-.5522847.44771525-1 1-1h4.81c-.5351884.9088291-.81503816 1.9453097-.81 3z" fill="#7f8e94" data-original="#7f8e94" style=""/>
            <path id="Path" d="m21 41c-.0007205.3353876.0294064.6701307.09 1h-4.18c.0605936-.3298693.0907205-.6646124.09-1 .0050382-1.0546903-.2748116-2.0911709-.81-3h5.62c-.5351884.9088291-.8150382 1.9453097-.81 3z" fill="#7f8e94" data-original="#7f8e94" style=""/>
            <path id="Path" d="m42 41c-.0007205.3353876.0294064.6701307.09 1h-9.18c.0605936-.3298693.0907205-.6646124.09-1 .0050382-1.0546903-.2748116-2.0911709-.81-3h10.62c-.5351884.9088291-.8150382 1.9453097-.81 3z" fill="#7f8e94" data-original="#7f8e94" style=""/>
            <path id="Path" d="m58 39v2c0 .5522847-.4477153 1-1 1h-3.09c.0605936-.3298693.0907205-.6646124.09-1 .0037062-1.0545164-.27605-2.0906507-.81-3h3.81c.5522847 0 1 .4477153 1 1z" fill="#7f8e94" data-original="#7f8e94" style=""/>
          </g>
          <path id="Path" d="m56 20.51v17.49h-2.81c-1.0689456-1.8562997-3.0479231-3.0003513-5.19-3.0003513s-4.1210544 1.1440516-5.19 3.0003513h-5.81v-27c-.0020581-.1344264.0113635-.268643.04-.4.194987-.92837306 1.0113854-1.59482074 1.96-1.6h9.81c.7322584.00038062 1.4064332.39875666 1.76 1.04l5.19 9.51c.1576138.2954386.2400411.6251476.24.96z" fill="#d78f45" data-original="#ff9801" style="" class=""/>
          <path id="Path" d="m55.76 19.55-5.19-9.51c-.3535668-.64124334-1.0277416-1.03961938-1.76-1.04h-3c.7322584.00038062 1.4064332.39875666 1.76 1.04l5.19 9.51c.1576138.2954386.2400411.6251476.24.96v17.2c.063.1.133.187.19.286h2.81v-17.486c.0000411-.3348524-.0823862-.6645614-.24-.96z" fill="#d78f45" data-original="#f57c00" style="" class=""/>
          <path id="Path" d="m45 35c-2.1422262-.0009001-4.1215715 1.1432301-5.19 3h3c.8046731-1.3904686 2.1342413-2.399355 3.69-2.8-.4895176-.1298957-.9935496-.1971-1.5-.2z" fill="#d78f45" data-original="#f57c00" style="" class=""/>
          <path id="Path" d="m37 30.9999988v7.0000012h-4.81c-1.0689456-1.8562997-3.0479231-3.0003513-5.19-3.0003513s-4.1210544 1.1440516-5.19 3.0003513h-5.62c-1.0689456-1.8562997-3.0479231-3.0003513-5.19-3.0003513-2.14207688 0-4.12105439 1.1440516-5.19 3.0003513h-4.81l3.42-5.99c.35612395-.6251194 1.02055722-1.0107962 1.74-1.01z" fill="#d78f45" data-original="#ff9801" style="" class=""/>
          <path id="Path" d="m24 35c-2.1422262-.0009001-4.1215715 1.1432301-5.19 3h3c.8046731-1.3904686 2.1342413-2.399355 3.69-2.8-.4895176-.1298957-.9935496-.1971-1.5-.2z" fill="#d78f45" data-original="#f57c00" style="" class=""/>
          <path id="Path" d="m8 35c-2.14222624-.0009001-4.12157147 1.1432301-5.19 3h3c.80467311-1.3904686 2.13424127-2.399355 3.69-2.8-.48951764-.1298957-.99354961-.1971-1.5-.2z" fill="#d78f45" data-original="#f57c00" style="" class=""/>
          <path id="Rectangle" d="m34 31h3v7h-3z" fill="#d78f45" data-original="#f57c00" style="" class=""/>
          <path id="Path" d="m52.19 13h-8.19c-.5522847 0-1 .4477153-1 1v5c0 .5522847.4477153 1 1 1h11.93" fill="#00bcd4" data-original="#00bcd4" style=""/>
          <path id="Path" d="m52.19 13h-3l3.74 7h3z" fill="#00838f" data-original="#00838f" style=""/>
          <path id="Path" d="m51 25h5v4h-5c-.5522847 0-1-.4477153-1-1v-2c0-.5522847.4477153-1 1-1z" fill="#c0762b" data-original="#ffdf00" style="" class=""/>
          <path id="Path" d="m36.77 9.02c-.09.49-.19.99-.28 1.48-.86 4.56-1.7166667 9.1166667-2.57 13.67-.1365141.7540791-.6919119 1.3638514-1.43 1.57-.49.13-.99.25-1.49.35-7.0096418 1.4645633-14.2907804.9132771-21-1.59-2.85155146-1.0564118-5.56199324-2.4603333-8.07-4.18-.22-.15-.44-.3-.65-.46-.61615842-.4569436-.91555975-1.2268327-.77-1.98.96-5.05 1.9-10.1 2.86-15.15.13651413-.75407906.69191186-1.3638514 1.43-1.57 10.7593855-2.69935765 22.1612499-.55054474 31.2 5.88.6161584.45694357.9155597 1.2268327.77 1.98z" fill="#c0762b" data-original="#ffdf00" style="" class=""/>
          <path id="Path" d="m36 7.04c-6.8630279-4.87933006-15.1534294-7.3386247-23.567-6.991 7.3915739.27021013 14.5419071 2.7007046 20.567 6.991.6161584.45694357.9155597 1.2268327.77 1.98-.09.49-.19.99-.28 1.48-.86 4.56-1.7166667 9.1166667-2.57 13.67-.1365141.7540791-.6919119 1.3638514-1.43 1.57-.49.13-.99.25-1.49.35-2.0267934.4261241-4.0862769.678374-6.156.754 3.0715137.1321096 6.1474771-.1211971 9.156-.754.5-.1 1-.22 1.49-.35.7380881-.2061486 1.2934859-.8159209 1.43-1.57.86-4.56 1.7166667-9.1166667 2.57-13.67.09-.49.19-.99.28-1.48.1455597-.7531673-.1538416-1.52305643-.77-1.98z" fill="#a36c33" data-original="#fec108" style="" class=""/>
          <path id="Path" d="m31 26.09v4.91h-21v-6.5c6.7092196 2.5032771 13.9903582 3.0545633 21 1.59z" fill="#d84315" data-original="#d84315" style="" class=""/>
          <path id="Path" d="m10 24.5v2.5h-7.34c-.62951461 0-1.22229124-.2963883-1.6-.8s-.49626409-1.155666-.32-1.76l1.19-4.12c2.50800676 1.7196667 5.21844854 3.1235882 8.07 4.18z" fill="#9e9e9e" data-original="#9e9e9e" style="" class=""/>
          <circle id="Oval" cx="11" cy="41" fill="#9e9e9e" r="2" data-original="#9e9e9e" style="" class=""/>
          <circle id="Oval" cx="27" cy="41" fill="#9e9e9e" r="2" data-original="#9e9e9e" style="" class=""/>
          <circle id="Oval" cx="48" cy="41" fill="#9e9e9e" r="2" data-original="#9e9e9e" style="" class=""/>
        </g>
        <g id="Icons_copy">
          <path id="Path" d="m7.431 10.081c-.2969898.0001535-.57868227-.13170971-.76879153-.35987946-.19010925-.22816974-.26896367-.52903606-.21520847-.82112054l.63-3.343c.07463768-.3952318.37880602-.70728015.772-.792 1.31370738-.2836005 2.6435197-.48664568 3.982-.608.5500756-.0502579 1.0367421.3549244 1.087.905s-.3549244 1.03674208-.905 1.087c-1.041.1-2.079.242-3.1.438l-.506 2.683c-.09017581.46856758-.49884268.8081463-.976.811z" fill="#ffffff" data-original="#ffffff" style="" class=""/>
          <g fill="#000">
            <path id="Shape" d="m12 39c-1.6568542 0-3 1.3431458-3 3s1.3431458 3 3 3 3-1.3431458 3-3-1.3431458-3-3-3zm0 4c-.5522847 0-1-.4477153-1-1s.4477153-1 1-1 1 .4477153 1 1-.4477153 1-1 1z" fill-rule="nonzero" fill="#000000" data-original="#000000" style="" class=""/>
            <path id="Shape" d="m28 39c-1.6568542 0-3 1.3431458-3 3s1.3431458 3 3 3 3-1.3431458 3-3-1.3431458-3-3-3zm0 4c-.5522847 0-1-.4477153-1-1s.4477153-1 1-1 1 .4477153 1 1-.4477153 1-1 1z" fill-rule="nonzero" fill="#000000" data-original="#000000" style="" class=""/>
            <path id="Shape" d="m49 39c-1.6568542 0-3 1.3431458-3 3s1.3431458 3 3 3 3-1.3431458 3-3-1.3431458-3-3-3zm0 4c-.5522847 0-1-.4477153-1-1s.4477153-1 1-1 1 .4477153 1 1-.4477153 1-1 1z" fill-rule="nonzero" fill="#000000" data-original="#000000" style="" class=""/>
            <path id="Shape" d="m58 38v-16.49c-.0045777-.2934168-.0524263-.5845524-.142-.864-.007-.02-.014-.039-.023-.059-.0510637-.1770026-.118002-.3490341-.2-.514l-3.52-6.452c0-.013-.014-.024-.02-.036l-1.648-3.022c-.526042-.9640244-1.536791-1.56356927-2.635-1.563h-9.812c-.4220462.00073216-.8390493.09177046-1.223.267-.0975788-.81396598-.52759-1.55128319-1.188-2.037-9.2941912-6.57363415-20.9899237-8.7749347-32.038-6.03-1.11210721.29793765-1.95423121 1.20813171-2.165 2.34l-2.857 15.16c-.21626673 1.130883.23511974 2.2855926 1.161 2.97.027.019.055.037.081.056l-.992 3.436c-.26368476.906403-.08536904 1.8840531.48133294 2.6390001.56670197.7549469 1.45568824 1.1991312 2.39966706 1.1989999h6.34v2h-2.839c-1.07457366.0032288-2.06575315.5796378-2.6 1.512l-3.2 5.6c-.81083867.2733863-1.35792941 1.032319-1.361 1.888v2c0 1.1045695.8954305 2 2 2h3.3c.8935021 2.952905 3.61487542 4.9726865 6.7 4.9726865 3.0851246 0 5.8064979-2.0197815 6.7-4.9726865h2.6c.8880282 2.9612495 3.6134643 4.989285 6.705 4.989285s5.8169718-2.0280355 6.705-4.989285h7.59c.8880282 2.9612495 3.6134643 4.989285 6.705 4.989285s5.8169718-2.0280355 6.705-4.989285h2.29c1.1045695 0 2-.8954305 2-2v-2c0-1.1045695-.8954305-2-2-2zm-5.412-23 2.728 5h-10.316v-5zm-50.094 4.069 2.857-15.158c.0642938-.37258607.33638284-.6753823.7-.779 2.88264406-.74077363 5.8477034-1.11241411 8.824-1.106 7.7140977-.01823373 15.2422446 2.36729894 21.538 6.825.3021553.2279374.4467943.60897562.372.98l-2.848 15.159c-.0642938.3725861-.3363828.6753823-.7.779-10.4741899 2.6039131-21.5631007.5159573-30.373-5.719-.30157784-.2287461-.4454005-.6100705-.37-.981zm34.506.453v11.478h-4v-3.128c.247-.059.5-.1.741-.168 1.1113197-.3004847 1.9511697-1.2126886 2.159-2.345zm-6 8.778v2.7h-19v-4.073c3.948723 1.3100649 8.0816315 1.9798648 12.242 1.984 2.266383-.0016607 4.5280705-.2061429 6.758-.611zm-27.34-1.3c-.31546232.0002777-.61255983-.1483162-.80155369-.4008986-.18899386-.2525825-.2477223-.5795351-.15844631-.8821014l.814-2.817c2.05116572 1.3054609 4.22317189 2.4105519 6.486 3.3v.8000004zm1.34 15h-3v-2h3.3c-.19689624.6484924-.29796417 1.3222785-.3 2zm7 5c-2.76142375 0-5-2.2385763-5-5s2.23857625-5 5-5c2.7614237 0 5 2.2385763 5 5-.0033061 2.7600532-2.2399468 4.9966939-5 5zm9-5h-2c-.0020358-.6777215-.1031038-1.3515076-.3-2h2.6c-.1968962.6484924-.2979642 1.3222785-.3 2zm7 5c-2.7614237 0-5-2.2385763-5-5s2.2385763-5 5-5 5 2.2385763 5 5c-.0033061 2.7600532-2.2399468 4.9966939-5 5zm5.736-9c-1.3052336-1.8790855-3.4480758-2.9997109-5.736-2.9997109s-4.4307664 1.1206254-5.736 2.9997109h-4.528c-1.3052336-1.8790855-3.4480758-2.9997109-5.736-2.9997109-2.28792419 0-4.43076639 1.1206254-5.736 2.9997109h-2.541l2.569-4.5c.17916314-.3103233.51067215-.501065.869-.5l29.839-.0000044v5.0000044zm8.264 4h-7c-.0020358-.6777215-.1031038-1.3515076-.3-2h7.6c-.1968962.6484924-.2979642 1.3222785-.3 2zm7 5c-2.7614237 0-5-2.2385763-5-5s2.2385763-5 5-5 5 2.2385763 5 5c-.0033061 2.7600532-2.2399468 4.9966939-5 5zm5.736-9c-1.3052336-1.8790855-3.4480758-2.9997109-5.736-2.9997109s-4.4307664 1.1206254-5.736 2.9997109h-4.264v-26c0-.5522847.4477153-1 1-1h9.812c.3659502-.0000677.7027099.1997635.878.521l.81 1.479h-6.5c-1.1045695 0-2 .8954305-2 2v5c0 1.1045695.8954305 2 2 2h11v3h-4c-1.1045695 0-2 .8954305-2 2v2c0 1.1045695.8954305 2 2 2h4v2h-2c-.5522847 0-1 .4477153-1 1s.4477153 1 1 1h2v3zm1.264-11v2h-4v-2zm2 15h-2c-.0020358-.6777215-.1031038-1.3515076-.3-2h2.3z" fill-rule="nonzero" fill="#000000" data-original="#000000" style="" class=""/>
            <path id="Path" d="m46 25h-2c-.5522847 0-1 .4477153-1 1s.4477153 1 1 1h2c.5522847 0 1-.4477153 1-1s-.4477153-1-1-1z" fill="#000000" data-original="#000000" style="" class=""/>
          </g>
        </g>
      </g>
    </g>
  </g>
</svg>
