<svg width="44" height="47" viewBox="0 0 44 47" fill="none" xmlns="http://www.w3.org/2000/svg">
<rect x="1.89282" y="0.194824" width="40.6313" height="40.6313" rx="16.3502" fill="url(#paint0_linear_107_677)"/>
<g opacity="0.25" filter="url(#filter0_f_107_677)">
<rect x="3.03027" y="20.5659" width="37.5058" height="23.4411" rx="11.7206" fill="url(#paint1_linear_107_677)"/>
</g>
<path d="M9.60059 32.6783L11.3766 26.0747C9.94429 23.5023 9.48923 20.5004 10.0949 17.6201C10.7006 14.7397 12.3264 12.174 14.674 10.3938C17.0216 8.61356 19.9335 7.73822 22.8754 7.92841C25.8173 8.11859 28.5918 9.36153 30.6898 11.4291C32.7879 13.4968 34.0687 16.2504 34.2972 19.1847C34.5258 22.119 33.6867 25.0371 31.9341 27.4037C30.1814 29.7702 27.6327 31.4264 24.7556 32.0683C21.8786 32.7102 18.8661 32.2948 16.2711 30.8983L9.60059 32.6783ZM16.5927 28.4272L17.0053 28.6715C18.8849 29.7837 21.0803 30.244 23.2493 29.9806C25.4183 29.7171 27.4391 28.7448 28.9968 27.215C30.5545 25.6853 31.5615 23.6841 31.861 21.5233C32.1605 19.3625 31.7356 17.1635 30.6526 15.2689C29.5695 13.3744 27.8891 11.8907 25.8733 11.0492C23.8574 10.2076 21.6193 10.0554 19.5078 10.6163C17.3963 11.1772 15.5299 12.4197 14.1995 14.1501C12.8691 15.8805 12.1495 18.0017 12.1527 20.1831C12.151 21.9918 12.652 23.7656 13.6001 25.3068L13.8588 25.7327L12.8659 29.4184L16.5927 28.4272Z" fill="white"/>
<path fill-rule="evenodd" clip-rule="evenodd" d="M26.6053 21.8787C26.3634 21.684 26.0803 21.5469 25.7773 21.478C25.4744 21.409 25.1597 21.41 24.8572 21.4808C24.4027 21.6693 24.1091 22.3813 23.8154 22.7373C23.7535 22.8227 23.6625 22.8825 23.5595 22.9057C23.4565 22.9288 23.3486 22.9136 23.256 22.863C21.5921 22.2124 20.1974 21.0193 19.2985 19.4774C19.2218 19.3812 19.1855 19.259 19.1973 19.1367C19.209 19.0143 19.2678 18.9012 19.3614 18.8213C19.6889 18.4975 19.9294 18.0966 20.0606 17.6555C20.0898 17.169 19.9781 16.6843 19.739 16.2594C19.5541 15.6636 19.2023 15.1332 18.7251 14.7306C18.479 14.6201 18.2061 14.5831 17.9394 14.6239C17.6726 14.6648 17.4234 14.7819 17.2218 14.961C16.8718 15.2625 16.594 15.6384 16.4089 16.0613C16.2237 16.4841 16.136 16.943 16.152 17.4042C16.1531 17.6632 16.186 17.9211 16.2499 18.1721C16.4123 18.7751 16.662 19.3513 16.9911 19.8823C17.2285 20.2891 17.4876 20.6829 17.7672 21.062C18.6759 22.3073 19.8181 23.3647 21.1304 24.1753C21.789 24.5873 22.4928 24.9222 23.2281 25.1736C23.9918 25.5192 24.8351 25.6519 25.6683 25.5575C26.1431 25.4858 26.5929 25.2986 26.9782 25.0126C27.3634 24.7265 27.6724 24.3503 27.8778 23.9171C27.9986 23.6553 28.0352 23.3627 27.9827 23.0794C27.8569 22.5 27.0807 22.158 26.6053 21.8787Z" fill="white"/>
<defs>
<filter id="filter0_f_107_677" x="0.0545297" y="17.5902" width="43.4573" height="29.3926" filterUnits="userSpaceOnUse" color-interpolation-filters="sRGB">
<feFlood flood-opacity="0" result="BackgroundImageFix"/>
<feBlend mode="normal" in="SourceGraphic" in2="BackgroundImageFix" result="shape"/>
<feGaussianBlur stdDeviation="1.48787" result="effect1_foregroundBlur_107_677"/>
</filter>
<linearGradient id="paint0_linear_107_677" x1="25.0166" y1="42.0379" x2="6.02207" y2="0.194823" gradientUnits="userSpaceOnUse">
<stop stop-color="#00D95F"/>
<stop offset="1" stop-color="#07FF74"/>
</linearGradient>
<linearGradient id="paint1_linear_107_677" x1="24.3753" y1="44.7061" x2="16.7303" y2="17.7604" gradientUnits="userSpaceOnUse">
<stop stop-color="#00D95F"/>
<stop offset="1" stop-color="#07FF74"/>
</linearGradient>
</defs>
</svg>
